<svg height="512" viewBox="0 0 64 64" width="512" xmlns="http://www.w3.org/2000/svg"><g id="Shopping_cart" data-name="Shopping cart"><path d="m51.82 34h-5.98l-.66 4h5.97z"/><path d="m50.82 40h-5.97l-.67 4h5.97z"/><path d="m37.01 37.89a1.259 1.259 0 0 0 .27.04 1 1 0 0 0 .85-1.5l-3.5-6.06-.86.5-.87.5 3.5 6.06a1.01 1.01 0 0 0 .61.46z"/><path d="m44.58 29.43-7.9.47 1.21 2.1h6.26z"/><path d="m43.82 34h-4.78l.83 1.43a3 3 0 0 1 .3 2.27 2.679 2.679 0 0 1 -.12.3h3.1z"/><path d="m42.82 40h-6.82v4h6.15z"/><path d="m48.29 17.19a1.969 1.969 0 0 0 -.2-1.52 2.008 2.008 0 0 0 -1.22-.93 1.792 1.792 0 0 0 -.51-.07l1.73 3a2.554 2.554 0 0 0 .2-.48z"/><path d="m35.37 27.63.19.33 11.16-.66-9.38-16.26-6.16 9.34.19.33z"/><path d="m34 44v-4h-6.88l.4 4z"/><path d="m31.17 32.37a5.983 5.983 0 0 1 -2.99.8 6.356 6.356 0 0 1 -1.56-.2c-.07-.02-.13-.06-.19-.08l.01.09v.03l.49 4.99h7.49z"/><path d="m49.08 23.38-2.09-3.61-1.5-2.6-5-8.66-1.73 1 10 17.32 1.73-1-1.39-2.42c-.01-.01-.02-.02-.02-.03z"/><path d="m48.45 29.19-1.82.11-.45 2.7h5.97l.67-4h-2.09l-1.84 1.06a.839.839 0 0 1 -.44.13z"/><path d="m22.23 28h-4.28l.39 4h5.99l-.03-.26a6.1 6.1 0 0 1 -1.33-1.57 5.953 5.953 0 0 1 -.74-2.17z"/><path d="m27.13 31.03a3.943 3.943 0 0 0 3.04-.4l3.46-2-4-6.92-3.46 2a3.906 3.906 0 0 0 -1.86 2.42 3.738 3.738 0 0 0 -.13.87 3.975 3.975 0 0 0 .53 2.17 3.906 3.906 0 0 0 2.42 1.86z"/><path d="m18.54 34 .39 4h5.99l-.39-4z"/><path d="m25.51 44-.4-4h-5.98l.39 4z"/><path d="m60.213 8.67a15.981 15.981 0 0 0 -8.161-6.943 1 1 0 1 0 -.707 1.87 13.966 13.966 0 0 1 8.826 15.289 1 1 0 0 0 1.975.322 15.993 15.993 0 0 0 -1.933-10.538z"/><path d="m49.3 7.118a9.985 9.985 0 0 1 6.8 11.782 1 1 0 0 0 .751 1.2.957.957 0 0 0 .224.026 1 1 0 0 0 .974-.777 11.983 11.983 0 0 0 -8.16-14.134 1 1 0 1 0 -.589 1.903z"/><path d="m47.29 10.746a5.991 5.991 0 0 1 4.663 8.077 1 1 0 1 0 1.867.716 7.989 7.989 0 0 0 -6.22-10.768 1 1 0 0 0 -.314 1.975z"/><path d="m17.5 48h34.85a1 1 0 0 0 .98-.81l4.46-23.19h-6.05l.98 1.7a.819.819 0 0 1 .1.3h1.18a1 1 0 0 1 .99 1.16l-3 18a1 1 0 0 1 -.99.84h-32.39a1.007 1.007 0 0 1 -1-.9l-1.76-18a1.036 1.036 0 0 1 .26-.77 1 1 0 0 1 .74-.33h5.44c.03-.13.05-.26.08-.38a5.814 5.814 0 0 1 .74-1.62h-6.65a1.007 1.007 0 0 1 -1-.9l-1.11-11.39a2.981 2.981 0 0 0 -2.98-2.71h-6.37a.928.928 0 0 0 -.69.29.938.938 0 0 0 -.3.79 1.073 1.073 0 0 0 1.1.92h4.99a2 2 0 0 1 1.99 1.77l3.647 33.723a3.489 3.489 0 0 0 1.763 6.507h34.5a1 1 0 0 0 0-2h-34.5a1.5 1.5 0 0 1 0-3z"/><path d="m42 54a3 3 0 1 0 3 3 3 3 0 0 0 -3-3zm0 4a1 1 0 1 1 1-1 1 1 0 0 1 -1 1z"/><path d="m21 54a3 3 0 1 0 3 3 3 3 0 0 0 -3-3zm0 4a1 1 0 1 1 1-1 1 1 0 0 1 -1 1z"/></g></svg>