<svg id="Layer_5" enable-background="new 0 0 64 64" height="512" viewBox="0 0 64 64" width="512" xmlns="http://www.w3.org/2000/svg"><g><path d="m56 57.101v-23.101c0-2.849-.728-5.617-2.062-8.082.218.044.439.082.662.082 1.875 0 3.4-1.525 3.4-3.4v-.254c0-1.177-.624-2.289-1.627-2.901l-14.451-8.831c-1.728-1.056-3.711-1.614-5.735-1.614h-9.898c-1.6 0-3.115-.54-4.344-1.53l1.469-1.47-5.414-5.414-14.414 14.414 5.414 5.414 2-2 2.968 2.968c.976.977 2.185 1.723 3.494 2.16.603.201 1.224.33 1.852.399-2.141 2.904-3.314 6.401-3.314 10.059v23.101c-2.279.465-4 2.484-4 4.899v1h48v-1c0-2.414-1.721-4.434-4-4.899zm-2-.101h-4v-1.786c0-1.663-.52-3.25-1.504-4.59-1.204-1.64-2.972-2.728-4.979-3.062l-2.695-.449-.47-1.41c1.652-1.076 2.878-2.745 3.384-4.703h.327c2.206 0 4-1.794 4-4 0-.946-.344-1.805-.896-2.491l.721-2.687c.116-.464.175-.942.175-1.42 0-2.454-1.549-4.666-3.855-5.504l-6.579-2.392c-.297-.108-.6-.193-.905-.266.174-.38.276-.797.276-1.24 0-1.13-.391-2.162-1.026-3h1.026c1.145 0 2.284.285 3.294.824l10.03 5.349c2.368 2.727 3.676 6.208 3.676 9.827zm-26-21.994v3.987c-1.073-.035-1.936-.912-1.936-1.994s.863-1.958 1.936-1.993zm.877-2.006h-.813c-.503 0-.979.104-1.423.274-.265-.92-.577-2.225-.577-3.274 0-1.103.897-2 2-2h.5l1.082-1.442c1.2-1.602 3.113-2.558 5.115-2.558.747 0 1.482.129 2.185.385l6.579 2.392c1.519.552 2.539 2.009 2.539 3.625 0 .315-.039.63-.111.919l-.52 1.936c-.429-.158-.886-.257-1.369-.257h-.941l-.383-.096c-2.209-.552-4.29-1.473-6.186-2.736l-.554-.37-.555.37c-1.896 1.264-3.977 2.185-6.186 2.736zm15.123 2h.064c1.103 0 2 .897 2 2s-.897 2-2 2h-.064zm-14-.221c2.124-.558 4.138-1.428 6-2.589 1.862 1.162 3.876 2.031 6 2.589v4.221c0 3.309-2.691 6-6 6s-6-2.691-6-6zm10.38 14.287.196.033-1.179 4.225-1.874-1.402zm-4.38-2.066c.887 0 1.738-.151 2.537-.419l.375 1.125-2.928 2.928-2.904-2.904.383-1.149c.799.268 1.65.419 2.537.419zm-4.407 2.071 2.852 2.852-1.875 1.402-1.178-4.22zm-2.185.364 2.022 7.241 4.555-3.407 4.555 3.407 2.021-7.246.628.105c1.49.248 2.802 1.055 3.695 2.272.72.98 1.116 2.19 1.116 3.407v1.786h-24v-1.786c0-1.216.396-2.426 1.116-3.407.894-1.217 2.206-2.024 3.695-2.272zm-22.994-34.435 11.586-11.586 2.586 2.586-11.586 11.586zm8.968 4.968-2.968-2.968 8.112-8.112c1.61 1.364 3.627 2.112 5.762 2.112h9.898c1.656 0 3.279.457 4.693 1.321l14.451 8.831c.414.252.67.71.67 1.194v.254c0 .772-.628 1.4-1.4 1.4-.229 0-.457-.057-.659-.165l-12.706-6.776c-1.298-.693-2.763-1.059-4.235-1.059h-5-3-2v2h2 3c1.654 0 3 1.346 3 3 0 .551-.449 1-1 1h-13.712c-.747 0-1.485-.12-2.194-.356-1.016-.339-1.954-.918-2.712-1.676zm6.456 4.032h7.494c-.474.401-.909.854-1.288 1.358l-.507.676c-1.958.258-3.474 1.938-3.474 3.966 0 1.609.566 3.587.871 4.539-.537.681-.871 1.529-.871 2.461 0 2.206 1.794 4 4 4h.199c.507 1.958 1.732 3.627 3.384 4.703l-.47 1.41-2.695.449c-2.007.334-3.775 1.421-4.979 3.062-.982 1.34-1.502 2.927-1.502 4.59v1.786h-4v-23c0-3.715 1.367-7.245 3.838-10zm-7.667 37c.413-1.164 1.525-2 2.829-2h38c1.304 0 2.416.836 2.829 2z"/><path d="m32.169 40.447.105.21c.723 1.446 2.174 2.343 3.79 2.343 1.615 0 3.067-.897 3.788-2.34l.106-.211-1.787-.897-.107.213c-.381.762-1.147 1.236-2 1.236s-1.619-.474-2-1.236l-.105-.211z"/><circle cx="39" cy="37" r="1"/><circle cx="33" cy="37" r="1"/></g></svg>