<?xml version="1.0"?>
<svg xmlns="http://www.w3.org/2000/svg" viewBox="0 0 64 64" width="512" height="512"><g id="Outline"><g><path d="M47,44.158a1,1,0,0,0-1,1V57a3,3,0,0,1-3,3H13a3,3,0,0,1-3-3V54h6a1,1,0,0,0,0-2H9V48a1,1,0,0,0-2,0v4H4V46a5.952,5.952,0,0,1,2.953-5.161,1,1,0,0,0-1.02-1.721A8.04,8.04,0,0,0,2,46v7a1,1,0,0,0,1,1H8v3a5.006,5.006,0,0,0,5,5H43a5.006,5.006,0,0,0,5-5V45.158A1,1,0,0,0,47,44.158Z"/><circle cx="13" cy="7" r="1"/><circle cx="17" cy="7" r="1"/><path d="M23,56a1,1,0,0,0,0,2H33a1,1,0,0,0,0-2Z"/><path d="M61,31a1,1,0,0,0-1,1v5a3,3,0,0,1-3,3H41a1,1,0,0,0-.707.293L36,44.586V41a1,1,0,0,0-1-1H33a3,3,0,0,1-3-3V22a1,1,0,0,0-2,0V37a5.006,5.006,0,0,0,5,5h1v5a1,1,0,0,0,.617.924A.987.987,0,0,0,35,48a1,1,0,0,0,.707-.293L41.414,42H57a5.006,5.006,0,0,0,5-5V32A1,1,0,0,0,61,31Z"/><path d="M57,10H48V7a5.006,5.006,0,0,0-5-5H13A5.006,5.006,0,0,0,8,7V18H7a1,1,0,0,0,0,2H17a7.008,7.008,0,0,1,7,7,4.988,4.988,0,0,1-2.378,4.235A.982.982,0,0,0,21,31a1,1,0,0,0-1,1c0,.2-.011.4-.03.589v.017A6,6,0,0,1,8,32V28a5.381,5.381,0,0,0,4.313-2.385A11.161,11.161,0,0,0,19.243,28H20a1,1,0,0,0,2,0V27a1,1,0,0,0-1-1H19.243a9.182,9.182,0,0,1-6.536-2.707,1,1,0,0,0-1.656.391A3.382,3.382,0,0,1,7.838,26H7a1,1,0,0,0-1,1v2.283A7.978,7.978,0,0,1,4,24V19a1,1,0,0,0-2,0v5a9.974,9.974,0,0,0,4,7.975V32a8,8,0,0,0,4,6.918V41a4,4,0,0,0,8,0V40a6.006,6.006,0,0,1,6,6,1,1,0,0,0,2,0A8.006,8.006,0,0,0,19.169,38.1a7.992,7.992,0,0,0,2.708-4.742A6.988,6.988,0,0,0,26,27a9.01,9.01,0,0,0-9-9H10V7a3,3,0,0,1,3-3H43a3,3,0,0,1,3,3v3H44V9a3,3,0,0,0-3-3H23a3,3,0,0,0-3,3,1,1,0,0,1-1,1H15a3,3,0,0,0-3,3v2a1,1,0,0,0,2,0V13a1,1,0,0,1,1-1h4a3,3,0,0,0,3-3,1,1,0,0,1,1-1H41a1,1,0,0,1,1,1v1H33a5.006,5.006,0,0,0-5,5v3a1,1,0,0,0,2,0V15a3,3,0,0,1,3-3H57a3,3,0,0,1,3,3V28a1,1,0,0,0,2,0V15A5.006,5.006,0,0,0,57,10ZM14,43a2,2,0,0,1-2-2V39.737a7.736,7.736,0,0,0,4,0V41A2,2,0,0,1,14,43Z"/><path d="M36,27a3,3,0,0,0,0,6h.158l-.069.272a3,3,0,0,0,2.182,3.638A2.967,2.967,0,0,0,39,37a3,3,0,0,0,2.91-2.272L42.342,33h1.816l-.069.272a3,3,0,0,0,2.182,3.638A2.967,2.967,0,0,0,47,37a3,3,0,0,0,2.91-2.272L50.342,33H52a3,3,0,0,0,0-6h-.158l.5-2H54a3,3,0,0,0,0-6h-.158l.069-.272a3,3,0,0,0-5.822-1.456L47.658,19H45.842l.069-.272a3,3,0,0,0-5.822-1.456L39.658,19H38a3,3,0,0,0,0,6h.158l-.5,2Zm4.227-3.615A1,1,0,0,0,39.438,23H38a1,1,0,0,1,0-2h2.438a1,1,0,0,0,.971-.758l.621-2.484a1,1,0,1,1,1.94.484l-.379,1.515A1,1,0,0,0,44.562,21h3.876a1,1,0,0,0,.971-.758l.621-2.484a.992.992,0,0,1,.459-.618.975.975,0,0,1,.754-.11,1,1,0,0,1,.727,1.212l-.379,1.515A1,1,0,0,0,52.562,21H54a1,1,0,0,1,0,2H51.562a1,1,0,0,0-.971.758l-1,4A1,1,0,0,0,50.562,29H52a1,1,0,0,1,0,2H49.562a1,1,0,0,0-.971.758l-.621,2.484a1.016,1.016,0,0,1-1.213.728,1,1,0,0,1-.727-1.212l.379-1.515A1,1,0,0,0,45.438,31H41.562a1,1,0,0,0-.971.758l-.621,2.484a1.016,1.016,0,0,1-1.213.728,1,1,0,0,1-.727-1.212l.379-1.515A1,1,0,0,0,37.438,31H36a1,1,0,0,1,0-2h2.438a1,1,0,0,0,.971-.758l1-4A1,1,0,0,0,40.227,23.385Z"/><path d="M42.562,29h3.876a1,1,0,0,0,.971-.758l1-4A1,1,0,0,0,47.438,23H43.562a1,1,0,0,0-.971.758l-1,4A1,1,0,0,0,42.562,29Zm1.78-4h1.816l-.5,2H43.842Z"/><circle cx="17" cy="31" r="1"/><circle cx="11" cy="31" r="1"/><path d="M14,35.826a3.817,3.817,0,0,0,2.707-1.119,1,1,0,0,0-1.414-1.414,1.831,1.831,0,0,1-2.586,0,1,1,0,0,0-1.414,1.414A3.817,3.817,0,0,0,14,35.826Z"/><path d="M20,47a1,1,0,0,0-1,1v5a1,1,0,0,0,1,1H41a3,3,0,0,0,3-3V45a1,1,0,0,0-2,0v6a1,1,0,0,1-1,1H26V49.5a1,1,0,0,0-2,0V52H21V48A1,1,0,0,0,20,47Z"/></g></g></svg>
