<?xml version="1.0" encoding="utf-8"?>
<!-- Generator: Adobe Illustrator 23.0.1, SVG Export Plug-In . SVG Version: 6.00 Build 0)  -->
<svg version="1.1" id="Camada_1" xmlns="http://www.w3.org/2000/svg" xmlns:xlink="http://www.w3.org/1999/xlink" x="0px" y="0px"
	 viewBox="0 0 232.8 98.9" style="enable-background:new 0 0 232.8 98.9;" xml:space="preserve">
<style type="text/css">
	.st0{fill:#FF0000;}
</style>
<title>Doejá - Logo</title>
<g>
	<path d="M0,9.1c6.1-0.9,12.3-1.4,18.5-1.4c12.5,0,21.4,2.9,27.3,8.4c5.9,5.5,9.5,13.3,9.5,24.2s-3.4,20-9.7,26.2
		c-6.3,6.2-16.7,9.7-29.8,9.7c-5.3,0-10.6-0.2-15.8-0.8L0,9.1z M8.7,68.7c2.9,0.4,5.9,0.6,8.8,0.5c18.6,0,28.7-10.4,28.7-28.6
		c0.1-15.9-8.9-26-27.3-26c-3.4-0.1-6.8,0.2-10.2,0.9V68.7z"/>
	<path d="M110.5,51c0,17.9-12.4,25.7-24.1,25.7c-13.1,0-23.2-9.6-23.2-24.9c0-16.2,10.6-25.7,24-25.7
		C101.1,26.1,110.5,36.2,110.5,51z M72.1,51.5c0,10.6,6.1,18.6,14.7,18.6c8.4,0,14.7-7.9,14.7-18.8c0-8.2-4.1-18.6-14.5-18.6
		S72.1,42.3,72.1,51.5z"/>
	<path d="M126.5,53c0.2,11.9,7.8,16.8,16.6,16.8c4.6,0.1,9.2-0.7,13.4-2.5l1.5,6.3c-3.1,1.4-8.4,3-16.1,3
		c-14.9,0-23.8-9.8-23.8-24.4s8.6-26.1,22.7-26.1c15.8,0,20,13.9,20,22.8c0,1.4-0.1,2.7-0.3,4.1H126.5z M152.3,46.7
		c0.1-5.6-2.3-14.3-12.2-14.3c-8.9,0-12.8,8.2-13.5,14.3H152.3z"/>
	<path d="M159.9,89.6c4-0.3,7.5-1.4,9.6-3.7c2.4-2.8,3.3-6.6,3.3-18.2V27.2h8.8v43.9c0,9.4-1.5,15.5-5.8,19.9
		c-3.9,3.9-10.3,5.5-15,5.5L159.9,89.6z"/>
	<path d="M222.8,75.6l-0.7-6.1h-0.3c-3.5,4.6-9,7.3-14.8,7.2c-9.8,0-14.8-6.9-14.8-13.9c0-11.7,10.4-18.1,29.1-18v-1
		c0-4-1.1-11.2-11-11.2c-4.5,0-8.8,1.3-12.6,3.6l-2-5.8c4.8-2.9,10.3-4.4,15.9-4.3c14.8,0,18.4,10.1,18.4,19.8v18.1
		c-0.1,3.9,0.2,7.8,0.8,11.6L222.8,75.6z M221.5,50.9c-9.6-0.2-20.5,1.5-20.5,10.9c0,5.7,3.8,8.4,8.3,8.4c5.3,0.2,10-3.1,11.7-8.1
		c0.3-0.9,0.5-1.8,0.5-2.8V50.9z M225.9,6.3l-12.2,14.3h-6.3l8.8-14.3L225.9,6.3z"/>
	<path class="st0" d="M183.1,0c-1.3,0-2.6,0.5-3.7,1.3c-0.9,0.7-1.6,1.6-2.2,2.6c-0.5-1-1.3-1.9-2.2-2.6C174,0.4,172.7,0,171.4,0
		c-3.8,0-6.6,3.1-6.6,7.2c0,4.4,3.6,7.5,9,12.1c0.9,0.8,1.9,1.7,3,2.6c0.1,0.1,0.3,0.2,0.5,0.2c0.2,0,0.4-0.1,0.5-0.2
		c1.1-1,2.1-1.8,3-2.6c5.4-4.6,8.9-7.6,8.9-12.1C189.7,3.1,186.9,0,183.1,0z"/>
</g>
</svg>
